<?xml version="1.0" standalone="no"?>
<!DOCTYPE svg PUBLIC "-//W3C//DTD SVG 20010904//EN"
 "http://www.w3.org/TR/2001/REC-SVG-20010904/DTD/svg10.dtd">
<svg version="1.0" xmlns="http://www.w3.org/2000/svg"
 width="913.000000pt" height="913.000000pt" viewBox="0 0 913.000000 913.000000"
 preserveAspectRatio="xMidYMid meet">
<metadata>
Created by potrace 1.11, written by Peter Selinger 2001-2013
</metadata>
<g transform="translate(0.000000,913.000000) scale(0.100000,-0.100000)"
fill="#000000" stroke="none">
<path d="M4297 8274 c-1 -1 -69 -5 -152 -8 -82 -4 -166 -9 -185 -11 -19 -3
-53 -7 -75 -10 -180 -22 -468 -86 -555 -122 -8 -3 -19 -7 -25 -8 -42 -11 -157
-57 -275 -111 -654 -299 -1216 -889 -1471 -1544 -47 -122 -108 -324 -125 -420
-3 -14 -11 -56 -19 -95 -12 -63 -18 -102 -30 -200 -18 -145 -24 -485 -12 -635
10 -120 27 -243 47 -345 6 -27 12 -59 14 -70 55 -278 193 -618 356 -875 234
-371 592 -720 970 -947 199 -119 511 -255 690 -299 207 -51 264 -62 395 -79
22 -2 56 -7 75 -10 175 -25 580 -25 785 -1 93 11 184 25 205 31 8 2 31 6 50 9
19 3 62 13 95 21 33 9 74 18 90 21 17 3 33 7 37 7 3 1 25 -18 49 -43 23 -25
92 -99 154 -165 61 -66 138 -149 171 -184 32 -35 77 -83 99 -106 22 -24 87
-94 145 -156 58 -62 121 -129 140 -150 19 -20 72 -77 116 -125 45 -49 103
-112 130 -140 27 -29 96 -103 154 -165 58 -62 119 -127 135 -144 17 -18 73
-79 125 -135 169 -183 186 -195 300 -195 111 0 114 2 315 190 64 61 132 124
149 140 336 312 353 329 378 384 48 112 20 210 -97 336 -79 85 -247 264 -316
339 -37 39 -81 87 -99 106 -30 32 -189 204 -270 290 -19 21 -78 84 -131 141
-53 57 -112 120 -130 140 -211 225 -263 280 -286 308 l-28 31 90 93 c79 81
216 243 268 317 264 377 420 764 482 1195 4 22 8 50 10 62 2 12 7 60 10 105 4
46 9 94 11 108 6 34 5 369 -1 450 -4 57 -21 208 -30 265 -12 82 -27 158 -39
207 -9 31 -17 67 -20 80 -23 112 -132 409 -188 513 -6 11 -27 49 -45 85 -62
119 -177 291 -279 419 -405 504 -935 851 -1529 1003 -116 29 -132 33 -185 43
-14 3 -36 7 -49 10 -14 2 -47 7 -75 10 -28 3 -64 8 -81 11 -66 12 -430 35
-438 28z m845 -781 c47 -45 46 -74 -11 -247 -30 -92 -48 -162 -44 -173 4 -10
18 -36 32 -58 28 -44 34 -54 72 -117 26 -44 260 -423 329 -533 79 -126 212
-341 223 -360 7 -11 23 -38 37 -60 14 -22 30 -49 37 -60 7 -11 31 -51 55 -89
24 -39 52 -85 63 -103 44 -72 125 -204 190 -308 151 -242 174 -306 170 -463
-12 -497 -608 -739 -964 -392 -37 36 -89 90 -117 121 -67 76 -184 207 -210
235 -12 13 -51 57 -88 98 -66 73 -67 74 -94 60 -94 -47 -290 -62 -412 -33 -11
3 -44 -85 -136 -361 -190 -573 -296 -894 -298 -905 -1 -5 -4 -14 -7 -20 -4 -5
-16 -43 -28 -84 -26 -85 -57 -121 -107 -121 -45 0 -85 36 -89 79 -1 18 14 83
35 145 21 61 129 388 240 726 l203 614 -29 21 c-16 11 -64 55 -106 98 -160
160 -221 376 -174 612 8 41 39 122 63 165 125 224 338 351 598 354 l60 1 92
275 c51 151 92 276 93 278 0 1 0 4 1 7 0 2 25 75 54 162 29 87 51 160 50 161
-2 2 -102 -70 -222 -160 -120 -90 -492 -371 -828 -623 -335 -253 -668 -503
-740 -557 -71 -53 -134 -100 -140 -105 -5 -4 -54 -41 -109 -82 -84 -64 -104
-75 -143 -77 -39 -2 -50 2 -81 30 -47 44 -49 75 -17 266 23 136 80 302 149
434 43 83 44 85 91 156 99 152 291 338 440 430 22 13 42 28 43 32 2 4 8 8 14
8 6 0 32 13 57 28 157 96 478 201 691 227 25 3 65 8 90 12 25 3 131 7 235 7
205 1 185 -3 260 53 6 5 55 42 110 83 55 41 102 78 103 83 2 4 10 7 17 7 7 0
15 4 17 9 2 5 18 18 37 29 46 28 105 22 143 -15z"/>
<path d="M4187 7049 c-14 -4 -47 -9 -73 -13 -88 -11 -274 -58 -339 -87 -11 -5
-45 -18 -75 -29 -108 -42 -278 -139 -380 -219 -46 -36 -193 -181 -220 -217
-86 -113 -139 -201 -183 -306 -34 -79 -87 -254 -87 -286 0 -12 25 4 90 55 8 7
92 70 186 140 94 70 385 290 648 488 263 198 517 388 564 423 l87 64 -97 -4
c-54 -2 -108 -6 -121 -9z"/>
<path d="M4987 6808 c-23 -64 -167 -503 -167 -510 0 -4 33 -24 73 -45 76 -40
209 -162 237 -218 8 -17 20 -37 27 -46 16 -20 59 -141 68 -194 38 -217 -29
-443 -176 -595 -41 -42 -41 -42 -22 -63 36 -41 108 -120 128 -141 11 -12 35
-39 54 -61 19 -22 69 -78 111 -125 42 -47 92 -102 110 -123 46 -53 106 -92
178 -116 253 -86 520 119 506 387 -3 72 -26 136 -79 221 -25 40 -45 75 -45 77
0 3 -5 10 -11 17 -5 7 -82 129 -169 272 -88 143 -163 265 -169 271 -5 6 -19
29 -30 50 -25 45 -44 77 -51 84 -3 3 -30 46 -59 95 -30 50 -69 113 -86 140
-18 28 -112 181 -210 340 -98 160 -184 298 -190 308 -11 15 -14 13 -28 -25z"/>
<path d="M4481 6164 c-179 -31 -331 -159 -393 -332 -32 -90 -33 -233 -2 -325
28 -84 90 -178 148 -225 l40 -34 13 29 c6 15 64 190 128 388 64 198 121 369
125 380 8 19 40 116 40 121 0 9 -37 9 -99 -2z"/>
<path d="M4720 6002 c-24 -75 -45 -139 -46 -142 0 -3 -3 -12 -7 -20 -34 -87
-218 -663 -213 -668 18 -18 177 -20 230 -2 21 6 43 13 50 14 38 5 138 69 190
122 118 119 169 279 143 449 -22 145 -120 286 -245 353 l-57 31 -45 -137z"/>
</g>
</svg>
